<?xml version="1.0"?><svg width="135.55" height="135.511" xmlns="http://www.w3.org/2000/svg">
 <radialGradient cx="44.4468" cy="46.3291" gradientUnits="userSpaceOnUse" id="XMLID_2_" r="84.7307">
  <stop id="stop6" offset="0" stop-color="#FFC154"/>
  <stop id="stop8" offset="1" stop-color="#F29B00"/>
 </radialGradient>
 <g>
  <title>Layer 1</title>
  <path d="m81.825127,29.78055c0,12.314001 -2.119003,25.257002 -4.87101,37.212011c-1.649994,7.165985 -8.261993,26.566986 -15.228996,11.318985c-5.728001,-12.532997 -6.635002,-27.952995 -7.569,-41.523994c-0.410999,-5.937002 -1.028999,-11.817001 4.484001,-15.813002c7.694,-5.579 23.185005,-2.528 23.185005,8.806" id="path16" fill="#000000" stroke-width="13"/>
  <path d="m79.002121,30.23855c0,10.672998 -1.893997,21.807001 -3.910988,32.247c-0.735016,3.797997 -5.393013,25.675003 -11.130013,13.661003c-5.279999,-11.055992 -5.750999,-25.315002 -6.629002,-37.340004c-0.334,-4.556999 -1.279999,-9.924999 1.812,-13.780998c5.228004,-6.521 19.858002,-4.395 19.858002,5.212999" id="path18" fill="#ffffff" stroke-width="13"/>
  <path d="m81.092628,105.853912c0,-17.25 -26.750999,-17.248001 -26.750999,0c0,17.25 26.750999,17.251999 26.750999,0" id="path20" fill="#000000" stroke-width="13"/>
  <path d="m77.982628,105.853912c0,-13.241005 -20.531998,-13.237999 -20.531998,0c0,13.240997 20.531998,13.242996 20.531998,0" id="path22" fill="#ffffff" stroke-width="13"/>
  <path d="m79.002121,30.23855c0,10.672998 -1.893997,21.807001 -3.910988,32.247c-0.735016,3.797997 -5.393013,25.675003 -11.130013,13.661003c-5.279999,-11.055992 -5.750999,-25.315002 -6.629002,-37.340004c-0.334,-4.556999 -1.279999,-9.924999 1.812,-13.780998c5.228004,-6.521 19.858002,-4.395 19.858002,5.212999" fill="#ff0000" id="svg_1" stroke-width="21"/>
  <path d="m77.982628,105.853912c0,-13.241005 -20.531998,-13.237999 -20.531998,0c0,13.240997 20.531998,13.242996 20.531998,0" fill="#ff0000" id="svg_2" stroke-width="13"/>
 </g>
</svg>